<mxfile host="app.diagrams.net" modified="2023-10-12T16:33:44.118Z" agent="Mozilla/5.0 (Windows NT 10.0; Win64; x64) AppleWebKit/537.36 (KHTML, like Gecko) Chrome/117.0.0.0 Safari/537.36" version="21.8.0" etag="HHJgIW4JV3w7Hjrom8EM" type="github">
  <diagram name="Page-1" id="C4dI0QD6Gjv0VmhcaG2w">
    <mxGraphModel>
      <root>
        <mxCell id="0" />
        <mxCell id="1" parent="0" />
      </root>
    </mxGraphModel>
  </diagram>
</mxfile>
